<svg id="Layer_1" data-name="Layer 1" xmlns="http://www.w3.org/2000/svg" xmlns:xlink="http://www.w3.org/1999/xlink" viewBox="0 0 14.62 12.59">
  <defs>
    <style>
      .cls-1 {
        fill: none;
      }

      .cls-2 {
        clip-path: url(#clip-path);
      }

      .cls-3 {
        fill: #b3b3b3;
      }
    </style>
    <clipPath id="clip-path" transform="translate(-1083.76 -705.74)">
      <rect class="cls-1" x="1084.62" y="705.41" width="11.59" height="15.41" transform="translate(-191.7 481.35) rotate(-22.94)"/>
    </clipPath>
  </defs>
  <title>search</title>
  <g class="cls-2">
    <path class="cls-3" d="M1083.82,711.91a5.39,5.39,0,0,0,2.1,3.58,5.42,5.42,0,0,0,7.17-.56l4.5,3.4,0.78-1-4.5-3.4a5.42,5.42,0,0,0-1.42-7.06,5.42,5.42,0,0,0-7.6,1.06,5.39,5.39,0,0,0-1,4h0Zm3.76-4.55a4.14,4.14,0,0,1,4.1.51,4.12,4.12,0,0,1-.87,7.09,4.14,4.14,0,0,1-4.1-.51,4.12,4.12,0,0,1,.87-7.09h0Zm0,0" transform="translate(-1083.76 -705.74)"/>
  </g>
</svg>
